                  Eastern Promises 2007 DvDRip XviD By D.O


        with English | Greek | Spanish | Swedish Subtitles languages




                       *******************************



                    Eastern Promises Nominated for Oscar. 

                      Another 27 wins and 42 nominations..





Movie Info

**********



Genres: Crime | Drama | Mystery | Thriller 
Director: David Cronenberg
Writer: Steven Knight
Stars: Naomi Watts, Viggo Mortensen and Armin Mueller Stahl.. 
Country: UK | Canada
Language: English | Russian | Turkish | Ukrainian | Urdu (Only a few words)
Subtitles: English | Greek | Spanish | Swedish
Release Date: 21 September 2007 USA
Also Known As: Promesses de l'ombre
Filming Locations: Broadway Market, Hackney, London, England, UK

IMDB Ratings: 7.7




Video Characteristics

*********************


Video
ID                             : 0
Format                         : MPEG-4 Visual
Format profile                 : Advanced Simple@L5
Format settings, BVOP          : 1
Format settings, QPel          : No
Format settings, GMC           : No warppoints
Format settings, Matrix        : Default (MPEG)
Muxing mode                    : Packed bitstream
Codec ID                       : XVID
Codec ID/Hint                  : XviD
Duration                       : 1h 40mn
Bit rate                       : 811 Kbps
Width                          : 592 pixels
Height                         : 320 pixels
Display aspect ratio           : 1.85:1
Frame rate                     : 23.976 fps
Color space                    : YUV
Chroma subsampling             : 4:2:0
Bit depth                      : 8 bits
Scan type                      : Progressive
Compression mode               : Lossy
Bits/(Pixel*Frame)             : 0.179
Stream size                    : 583 MiB (83%)
Writing library                : XviD 1.1.2 (UTC 2006-11-01)

Audio
ID                             : 1
Format                         : MPEG Audio
Format version                 : Version 1
Format profile                 : Layer 3
Mode                           : Joint stereo
Mode extension                 : MS Stereo
Codec ID                       : 55
Codec ID/Hint                  : MP3
Duration                       : 1h 40mn
Bit rate mode                  : Variable
Bit rate                       : 150 Kbps
Minimum bit rate               : 128 Kbps
Channel(s)                     : 2 channels
Sampling rate                  : 48.0 KHz
Compression mode               : Lossy
Stream size                    : 108 MiB (15%)
Alignment                      : Aligned on interleaves
Interleave, duration           : 24 ms (0.58 video frame)
Interleave, preload duration   : 431 ms
Writing library                : LAME3.97 
Encoding settings              : -m j -V 2 -q 3 -lowpass 18.6 --vbr-new -b 128




Cover / Screenshots

*******************



Front Cover
***********

      
http://bayimg.com/gabiEaaEa



Multi Screenshots
*****************

 
    
http://bayimg.com/gAbIgAaEA




Movie Plot
**********



A Russian teenager living in London who dies during childbirth leaves clues to a midwife in her journal that could tie her child to a rape involving a violent Russian mob family. 




              Enjoy and Please don't forget to seed...!!!